<svg width="13" height="24" viewBox="0 0 13 24" fill="none" xmlns="http://www.w3.org/2000/svg">
<path d="M10.3333 0.333332C10.7228 0.332571 11.1001 0.468197 11.4 0.716665C11.5688 0.856581 11.7083 1.02842 11.8105 1.22233C11.9128 1.41624 11.9758 1.62842 11.9959 1.84671C12.016 2.06501 11.9929 2.28513 11.9278 2.49447C11.8627 2.70381 11.757 2.89825 11.6167 3.06666L4.15 12L11.35 20.95C11.4884 21.1205 11.5918 21.3166 11.6542 21.5272C11.7166 21.7378 11.7368 21.9586 11.7135 22.177C11.6903 22.3953 11.6241 22.607 11.5188 22.7997C11.4135 22.9924 11.2712 23.1625 11.1 23.3C10.9276 23.4517 10.7256 23.5662 10.5068 23.6362C10.2881 23.7061 10.0572 23.7301 9.8287 23.7067C9.60022 23.6832 9.37905 23.6127 9.17908 23.4997C8.97911 23.3867 8.80465 23.2336 8.66666 23.05L0.616661 13.05C0.371525 12.7518 0.237515 12.3777 0.237516 11.9917C0.237516 11.6056 0.371525 11.2316 0.616661 10.9333L8.95 0.933332C9.11719 0.731638 9.32958 0.572197 9.56993 0.467949C9.81028 0.363703 10.0718 0.317581 10.3333 0.333332Z" fill="white"/>
</svg>
