<svg width="30" height="30" viewBox="0 0 30 30" fill="none" xmlns="http://www.w3.org/2000/svg">
<path d="M24.1375 23.625L27.9875 27.5L26.25 29.2375L22.35 25.4C21.4875 25.9375 20.4625 26.25 19.375 26.25C16.25 26.25 13.75 23.75 13.75 20.625C13.75 17.5 16.25 15 19.375 15C22.5 15 25 17.5 25 20.625C25 21.725 24.6875 22.7625 24.1375 23.625ZM19.375 23.75C20.2038 23.75 20.9987 23.4208 21.5847 22.8347C22.1708 22.2487 22.5 21.4538 22.5 20.625C22.5 19.7962 22.1708 19.0013 21.5847 18.4153C20.9987 17.8292 20.2038 17.5 19.375 17.5C18.5462 17.5 17.7513 17.8292 17.1653 18.4153C16.5792 19.0013 16.25 19.7962 16.25 20.625C16.25 21.4538 16.5792 22.2487 17.1653 22.8347C17.7513 23.4208 18.5462 23.75 19.375 23.75ZM26.25 5V7.5H3.75V5H26.25ZM3.75 20V17.5H11.25V20H3.75ZM3.75 13.75V11.25H26.25V13.75H23.7125C22.45 12.9625 20.9625 12.5 19.375 12.5C17.7875 12.5 16.3 12.9625 15.0375 13.75H3.75Z" fill="#FF7200"/>
</svg>
